<svg width="13" height="13" viewBox="0 0 13 13" fill="none" xmlns="http://www.w3.org/2000/svg">
<path d="M0.883789 0.88385H2.13962L2.39079 2.13968M3.39546 7.16302H9.67462L12.1863 2.13968H2.39079M3.39546 7.16302L2.39079 2.13968M3.39546 7.16302L1.95571 8.60276C1.56014 8.99833 1.8403 9.67468 2.39971 9.67468H9.67462M9.67462 9.67468C8.98104 9.67468 8.41879 10.2369 8.41879 10.9305C8.41879 11.6241 8.98104 12.1863 9.67462 12.1863C10.3682 12.1863 10.9305 11.6241 10.9305 10.9305C10.9305 10.2369 10.3682 9.67468 9.67462 9.67468ZM4.65129 10.9305C4.65129 11.6241 4.08903 12.1863 3.39546 12.1863C2.70188 12.1863 2.13962 11.6241 2.13962 10.9305C2.13962 10.2369 2.70188 9.67468 3.39546 9.67468C4.08903 9.67468 4.65129 10.2369 4.65129 10.9305Z" stroke="white" stroke-width="1.5" stroke-linecap="round" stroke-linejoin="round"/>
</svg>
