<svg width="11" height="13" viewBox="0 0 11 13" fill="none" xmlns="http://www.w3.org/2000/svg">
<path d="M3.65131 7.79099L7.41881 4.02349M3.96529 4.33745H3.97157M7.10487 7.47704H7.11115M9.93048 12.1864V2.13974C9.93048 1.44617 9.36823 0.883911 8.67465 0.883911H2.39548C1.7019 0.883911 1.13965 1.44617 1.13965 2.13974V12.1864L3.33736 10.9306L5.53506 12.1864L7.73277 10.9306L9.93048 12.1864ZM4.27923 4.33745C4.27923 4.51085 4.13867 4.65141 3.96527 4.65141C3.79188 4.65141 3.65131 4.51085 3.65131 4.33745C3.65131 4.16406 3.79188 4.02349 3.96527 4.02349C4.13867 4.02349 4.27923 4.16406 4.27923 4.33745ZM7.41881 7.47704C7.41881 7.65043 7.27825 7.79099 7.10486 7.79099C6.93146 7.79099 6.7909 7.65043 6.7909 7.47704C6.7909 7.30364 6.93146 7.16308 7.10486 7.16308C7.27825 7.16308 7.41881 7.30364 7.41881 7.47704Z" stroke="white" stroke-width="1.5" stroke-linecap="round" stroke-linejoin="round"/>
</svg>
