<svg width="13" height="13" viewBox="0 0 13 13" fill="none" xmlns="http://www.w3.org/2000/svg">
<path fill-rule="evenodd" clip-rule="evenodd" d="M6.70627 0.0161133C3.22164 0.0161133 0.418213 2.81954 0.418213 6.30417C0.418213 9.08139 2.22603 11.4394 4.71505 12.2778C5.02945 12.3302 5.13426 12.1468 5.13426 11.9634C5.13426 11.8062 5.13426 11.4132 5.13426 10.8892C3.37884 11.2822 3.01204 10.0508 3.01204 10.0508C2.72383 9.3172 2.30463 9.13379 2.30463 9.13379C1.72822 8.74079 2.35703 8.74079 2.35703 8.74079C2.98584 8.79319 3.32644 9.3958 3.32644 9.3958C3.87664 10.3652 4.79365 10.077 5.16046 9.9198C5.21286 9.5006 5.37006 9.2386 5.55346 9.08139C4.16485 8.92419 2.69763 8.37399 2.69763 5.96357C2.69763 5.28236 2.93344 4.70595 3.35264 4.28675C3.30024 4.12955 3.06444 3.50074 3.40504 2.60994C3.40504 2.60994 3.92904 2.45273 5.13426 3.26494C5.63206 3.13394 6.18227 3.05534 6.70627 3.05534C7.23027 3.05534 7.78048 3.13394 8.27828 3.26494C9.48349 2.45273 10.0075 2.60994 10.0075 2.60994C10.3481 3.47454 10.1385 4.10335 10.0599 4.28675C10.4529 4.73215 10.7149 5.28236 10.7149 5.96357C10.7149 8.37399 9.24769 8.89799 7.83288 9.05519C8.06868 9.2386 8.25208 9.6316 8.25208 10.208C8.25208 11.0464 8.25208 11.7276 8.25208 11.9372C8.25208 12.0944 8.35688 12.304 8.69749 12.2516C11.1865 11.4394 12.9943 9.08139 12.9943 6.30417C12.9943 2.81954 10.1909 0.0161133 6.70627 0.0161133Z" fill="white"/>
</svg>
