<svg width="14" height="14" viewBox="0 0 14 14" fill="none" xmlns="http://www.w3.org/2000/svg">
<path d="M6.92935 1.20062C8.68452 1.20062 8.89237 1.20719 9.58573 1.23881C10.0026 1.24391 10.4155 1.32046 10.8066 1.46513C11.0901 1.57449 11.3476 1.742 11.5625 1.9569C11.7774 2.1718 11.9449 2.42932 12.0543 2.71287C12.199 3.10388 12.2755 3.51681 12.2806 3.93369C12.3119 4.62705 12.3188 4.83491 12.3188 6.59007C12.3188 8.34523 12.3122 8.55308 12.2806 9.24645C12.2755 9.66333 12.199 10.0763 12.0543 10.4673C11.9449 10.7508 11.7774 11.0083 11.5625 11.2232C11.3476 11.4381 11.0901 11.6056 10.8066 11.715C10.4155 11.8597 10.0026 11.9362 9.58573 11.9413C8.89268 11.9726 8.68483 11.9795 6.92935 11.9795C5.17388 11.9795 4.96603 11.9729 4.27298 11.9413C3.85609 11.9362 3.44317 11.8597 3.05216 11.715C2.7686 11.6056 2.51109 11.4381 2.29619 11.2232C2.08129 11.0083 1.91377 10.7508 1.80442 10.4673C1.65975 10.0763 1.5832 9.66333 1.5781 9.24645C1.54679 8.55308 1.53991 8.34523 1.53991 6.59007C1.53991 4.83491 1.54648 4.62705 1.5781 3.93369C1.5832 3.51681 1.65975 3.10388 1.80442 2.71287C1.91377 2.42932 2.08129 2.1718 2.29619 1.9569C2.51109 1.742 2.7686 1.57449 3.05216 1.46513C3.44317 1.32046 3.85609 1.24391 4.27298 1.23881C4.96634 1.20751 5.17419 1.20062 6.92935 1.20062ZM6.92935 0.0161133C5.14508 0.0161133 4.92032 0.023626 4.21914 0.0555551C3.67354 0.0664072 3.13373 0.169711 2.62268 0.361073C2.18428 0.526249 1.7872 0.785093 1.45915 1.11955C1.12439 1.44772 0.865325 1.84503 0.700046 2.28371C0.508685 2.79476 0.405381 3.33457 0.394529 3.88016C0.363226 4.58073 0.355713 4.80548 0.355713 6.58976C0.355713 8.37403 0.363226 8.59879 0.395155 9.29997C0.406007 9.84557 0.509311 10.3854 0.700673 10.8964C0.865767 11.3351 1.12462 11.7324 1.45915 12.0606C1.78738 12.3951 2.18468 12.654 2.62331 12.8191C3.13436 13.0104 3.67416 13.1137 4.21976 13.1246C4.92095 13.1559 5.14477 13.164 6.92998 13.164C8.71519 13.164 8.93901 13.1565 9.6402 13.1246C10.1858 13.1137 10.7256 13.0104 11.2367 12.8191C11.6732 12.6498 12.0696 12.3914 12.4006 12.0602C12.7315 11.7291 12.9897 11.3325 13.1587 10.8958C13.35 10.3848 13.4533 9.84494 13.4642 9.29935C13.4955 8.59879 13.503 8.37403 13.503 6.58976C13.503 4.80548 13.4955 4.58073 13.4636 3.87954C13.4527 3.33394 13.3494 2.79413 13.158 2.28308C12.9929 1.84446 12.7341 1.44715 12.3996 1.11892C12.0713 0.784391 11.674 0.525542 11.2354 0.360447C10.7243 0.169085 10.1845 0.0657812 9.63895 0.0549291C8.93838 0.023626 8.71363 0.0161133 6.92935 0.0161133Z" fill="white"/>
<path d="M6.92772 3.21777C6.26007 3.21777 5.60741 3.41576 5.05227 3.78669C4.49714 4.15761 4.06447 4.68483 3.80897 5.30166C3.55346 5.91849 3.48661 6.59724 3.61687 7.25206C3.74712 7.90689 4.06863 8.50839 4.54073 8.98049C5.01283 9.45259 5.61433 9.7741 6.26915 9.90435C6.92398 10.0346 7.60273 9.96775 8.21956 9.71225C8.83639 9.45675 9.36361 9.02408 9.73453 8.46895C10.1055 7.91381 10.3034 7.26115 10.3034 6.59349C10.3034 5.6982 9.94779 4.83957 9.31472 4.2065C8.68165 3.57343 7.82302 3.21777 6.92772 3.21777ZM6.92772 8.78471C6.49434 8.78471 6.07069 8.6562 5.71035 8.41542C5.35001 8.17465 5.06915 7.83243 4.90331 7.43204C4.73746 7.03164 4.69407 6.59106 4.77861 6.16601C4.86316 5.74096 5.07186 5.35052 5.3783 5.04407C5.68475 4.73763 6.07519 4.52893 6.50024 4.44438C6.92529 4.35984 7.36587 4.40323 7.76627 4.56908C8.16666 4.73492 8.50888 5.01578 8.74965 5.37612C8.99043 5.73646 9.11894 6.16011 9.11894 6.59349C9.11894 7.17464 8.88808 7.73198 8.47715 8.14292C8.06621 8.55385 7.50887 8.78471 6.92772 8.78471Z" fill="white"/>
<path d="M10.4483 3.87113C10.8839 3.87113 11.2371 3.51796 11.2371 3.08229C11.2371 2.64663 10.8839 2.29346 10.4483 2.29346C10.0126 2.29346 9.65942 2.64663 9.65942 3.08229C9.65942 3.51796 10.0126 3.87113 10.4483 3.87113Z" fill="white"/>
</svg>
