<svg width="24" height="25" viewBox="0 0 24 25" fill="none" xmlns="http://www.w3.org/2000/svg">
<g filter="url(#filter0_d_8_1976)">
<path d="M5.25 3.75C5.25 2.92157 5.92157 2.25 6.75 2.25H9.20943C9.53225 2.25 9.81886 2.45657 9.92094 2.76283L11.0443 6.13291C11.1623 6.48699 11.002 6.87398 10.6682 7.0409L8.97525 7.88737C9.80194 9.72091 11.2791 11.1981 13.1126 12.0247L13.9591 10.3318C14.126 9.99796 14.513 9.83767 14.8671 9.9557L18.2372 11.0791C18.5434 11.1811 18.75 11.4677 18.75 11.7906V14.25C18.75 15.0784 18.0784 15.75 17.25 15.75H16.5C10.2868 15.75 5.25 10.7132 5.25 4.5V3.75Z" stroke="white" stroke-width="1.5" stroke-linecap="round" stroke-linejoin="round"/>
</g>
<defs>
<filter id="filter0_d_8_1976" x="-1" y="0" width="26" height="26" filterUnits="userSpaceOnUse" color-interpolation-filters="sRGB">
<feFlood flood-opacity="0" result="BackgroundImageFix"/>
<feColorMatrix in="SourceAlpha" type="matrix" values="0 0 0 0 0 0 0 0 0 0 0 0 0 0 0 0 0 0 127 0" result="hardAlpha"/>
<feOffset dy="4"/>
<feGaussianBlur stdDeviation="2"/>
<feComposite in2="hardAlpha" operator="out"/>
<feColorMatrix type="matrix" values="0 0 0 0 0 0 0 0 0 0 0 0 0 0 0 0 0 0 0.25 0"/>
<feBlend mode="normal" in2="BackgroundImageFix" result="effect1_dropShadow_8_1976"/>
<feBlend mode="normal" in="SourceGraphic" in2="effect1_dropShadow_8_1976" result="shape"/>
</filter>
</defs>
</svg>
